<?xml version="1.0" encoding="UTF-8" standalone="no"?>
<svg
   id="svg"
   version="1.1"
   width="400"
   height="400"
   viewBox="0, 0, 400,400"
   sodipodi:docname="favicon.svg"
   inkscape:version="1.2.2 (b0a8486541, 2022-12-01)"
   xmlns:inkscape="http://www.inkscape.org/namespaces/inkscape"
   xmlns:sodipodi="http://sodipodi.sourceforge.net/DTD/sodipodi-0.dtd"
   xmlns="http://www.w3.org/2000/svg"
   xmlns:svg="http://www.w3.org/2000/svg">
  <defs
     id="defs8" />
  <sodipodi:namedview
     id="namedview6"
     pagecolor="#ffffff"
     bordercolor="#000000"
     borderopacity="0.25"
     inkscape:showpageshadow="2"
     inkscape:pageopacity="0.0"
     inkscape:pagecheckerboard="0"
     inkscape:deskcolor="#d1d1d1"
     showgrid="false"
     inkscape:zoom="2.07"
     inkscape:cx="200.24155"
     inkscape:cy="191.30435"
     inkscape:window-width="1920"
     inkscape:window-height="976"
     inkscape:window-x="0"
     inkscape:window-y="32"
     inkscape:window-maximized="1"
     inkscape:current-layer="svg" />
  <g
     id="svgg"
     transform="matrix(1.4195474,0,0,1.4195474,-65.707451,-78.705592)">
    <path
       id="path0"
       d="m 69.534,58.188 c -7.491,0.655 -14.301,4.794 -18.544,11.273 -5.522,8.431 -4.145,20.271 3.142,27.018 6.25,5.787 10.501,7.243 38.155,13.071 20.797,4.383 58.619,13.444 78.849,18.889 21.86,5.884 47.504,13.317 49.347,14.304 0.21,0.112 1.287,0.502 2.393,0.865 6.095,2.005 7.623,3.09 7.911,5.614 0.312,2.739 -2.375,3.861 -16.242,6.779 -43.931,9.245 -59.712,14.324 -70.318,22.628 -13.75,10.767 -15.337,28.585 -3.615,40.583 6.514,6.668 19.112,13.683 29.804,16.598 0.667,0.182 1.383,0.421 1.591,0.532 1.062,0.565 8.04,2.613 20.58,6.04 2.11,0.577 4.231,1.249 4.712,1.495 0.682,0.348 5.151,3.164 5.643,3.555 0.242,0.193 -3.057,3.242 -5.556,5.134 -10.358,7.846 -15.06,13.486 -18.175,21.802 -4.902,13.088 -2.474,23.493 9.165,39.268 16.058,21.766 23.969,25.659 35.18,17.313 8.211,-6.112 9.641,-15.202 3.972,-25.245 -2.169,-3.842 -4.317,-8.114 -4.789,-9.525 l -0.481,-1.434 1.087,-1.861 c 1.91,-3.271 5.352,-6.455 13.928,-12.885 12.595,-9.443 15.423,-11.841 19.026,-16.135 10.21,-12.169 11.842,-22.193 5.631,-34.582 -4.027,-8.034 -9.711,-13.528 -21.589,-20.87 -3.533,-2.183 -6.868,-4.492 -7.379,-5.107 -0.592,-0.714 4.284,-2.667 10.333,-4.139 5.034,-1.225 10.987,-2.583 17.273,-3.939 31.944,-6.891 42.753,-10.087 51.283,-15.161 16.804,-9.996 20.632,-27.9 9.154,-42.816 -7.236,-9.404 -23.464,-18.392 -50.664,-28.06 -1.875,-0.666 -4.278,-1.526 -5.341,-1.909 -14.559,-5.258 -45.72,-14.553 -69.318,-20.676 -2.938,-0.763 -8.256,-2.154 -11.818,-3.093 -21.682,-5.715 -45.392,-11.473 -73.409,-17.83 -2.688,-0.609 -6.37,-1.469 -8.182,-1.91 C 79.984,58.352 75.81,57.64 69.534,58.188"
       stroke="none"
       fill="#75cd01"
       fill-rule="evenodd" />
    <path
       id="path1"
       d=""
       stroke="none"
       fill="#000000"
       fill-rule="evenodd" />
  </g>
</svg>
